# xmcd
#
# Track frame offsets: 
#        150
#        15444
#        29301
#        40361
#        50011
#        63760
#        77509
#        89255
#        103272
#        119674
#        132353
#        143260
#        156990
#        168383
#        181142
#        192100
#        206929
#        218972
#
# Disc length: 3058 seconds
#
# Revision: 0
# Processed by: cddbd v1.5.2PL0 Copyright (c) Steve Scherf et al.
# Submitted via: ExactAudioCopy v1.1
#
DISCID=f90bf012
DTITLE=B.B.King - B.B.King - Milestones of a Blues Legend cd 04 - B.B.
DTITLE=King Sings Spirituals (1958)
DYEAR=1958
DGENRE=Blues
TTITLE0=Precious Lord
TTITLE1=Save a Seat for Me
TTITLE2=Ole Time Religion
TTITLE3=Sweet Chariot
TTITLE4=Servant’s Prayer
TTITLE5=Jesus Gave Me Water
TTITLE6=I Never Heard a Man
TTITLE7=Army of the Lord
TTITLE8=I Am Willing to Run All the Way
TTITLE9=I’m Working On the Building
TTITLE10=Love You Baby (Bonus Track)
TTITLE11=Sneakin’ Around (Bonus Track)
TTITLE12=Bye Bye Baby (Bonus Track)
TTITLE13=Praying to the Lord (Bonus Track)
TTITLE14=Everything I Do Is Wrong (Bonus Track) 
TTITLE15=Please Help Me (Bonus Track)
TTITLE16=Don’t You Want a Man like Me (Bonus Track) 
TTITLE17=I’m in Love (Bonus Track)
EXTD=
EXTT0=
EXTT1=
EXTT2=
EXTT3=
EXTT4=
EXTT5=
EXTT6=
EXTT7=
EXTT8=
EXTT9=
EXTT10=
EXTT11=
EXTT12=
EXTT13=
EXTT14=
EXTT15=
EXTT16=
EXTT17=
PLAYORDER=
